<?xml version="1.0" encoding="UTF-8"?>
<svg id="Layer_1" data-name="Layer 1" xmlns="http://www.w3.org/2000/svg" viewBox="0 0 1408 768">
  <defs>
    <style>
      .cls-1, .cls-2 {
        fill: #0e6e5b;
      }

      .cls-1, .cls-2, .cls-3, .cls-4, .cls-5 {
        stroke: #231f20;
        stroke-linecap: round;
      }

      .cls-1, .cls-3, .cls-4, .cls-5 {
        stroke-miterlimit: 10;
      }

      .cls-2 {
        stroke-linejoin: round;
      }

      .cls-6, .cls-4, .cls-5 {
        fill: none;
      }

      .cls-3 {
        fill: #f2a93b;
        opacity: .85;
      }

      .cls-5 {
        opacity: .5;
      }
    </style>
  </defs>
  <path class="cls-6" d="M50.14,138.73c22.28,11.23,42.71,26.13,60.2,43.92,7.37-3.6,16.48-7.67,24.44-9.63-13.83-.03-27.66-.06-41.49-.1,9.18-1.11,18.47-1.38,27.7-.81"/>
  <path class="cls-6" d="M155.24,251.02c-1.03-8.71-1.59-17.47-1.68-26.23-.07-6.16.11-12.4,1.85-18.3,4.69-15.92,20.22-26.74,36.36-30.58s33.03-1.92,49.51.02"/>
  <path class="cls-4" d="M777.34,337.02c2.55-1.34,4.99-2.87,7.32-4.58"/>
  <path class="cls-4" d="M763.61,343c3.4-1,6.68-2.35,9.82-3.99"/>
  <path class="cls-4" d="M748.89,346.27c2.87-.41,5.72-1.02,8.54-1.85"/>
  <path class="cls-1" d="M734.75,347.66c3.03,0,6.06-.2,9.06-.63"/>
  <path class="cls-1" d="M715.84,346.35c4.33.85,8.73,1.3,13.12,1.31"/>
  <path class="cls-1" d="M703.36,343.14c2.3.69,4.63,1.27,6.97,1.73"/>
  <path class="cls-1" d="M693.22,339.01c1.9.74,3.83,1.4,5.78,1.99"/>
  <path class="cls-4" d="M680.14,332.73c2.56,1.4,5.18,2.67,7.85,3.78"/>
  <circle class="cls-1" cx="588" cy="287" r="48.62"/>
  <ellipse class="cls-5" cx="588" cy="287" rx="71.5" ry="65"/>
  <path class="cls-4" d="M826.01,256.13c.06-4.08-.41-8.19-1.47-12.23"/>
  <path class="cls-4" d="M825.54,266c.27-1.99.43-3.99.46-5.99"/>
  <path class="cls-4" d="M823.71,277.12c.53-2.02.94-4.06,1.23-6.12"/>
  <path class="cls-4" d="M819.67,289.85c1.07-2.5,1.96-5.07,2.65-7.69"/>
  <path class="cls-4" d="M813,303c1.46-2.39,2.74-4.88,3.83-7.44"/>
  <path class="cls-4" d="M805.18,313.64c1.76-2.17,3.38-4.46,4.82-6.83"/>
  <path class="cls-4" d="M798.3,320.81c1.67-1.64,3.25-3.37,4.72-5.18"/>
  <path class="cls-4" d="M788.04,330.42c2.32-1.7,4.52-3.57,6.57-5.59"/>
  <path class="cls-1" d="M664.03,322.79c3.69,2.88,7.59,5.45,11.65,7.67"/>
  <path class="cls-2" d="M653.17,314.51c2.41,2.26,4.97,4.36,7.64,6.31"/>
  <path class="cls-1" d="M641,303c2.94,3.37,6.13,6.57,9.51,9.57"/>
  <circle class="cls-3" cx="814.92" cy="222" r="19.34"/>
</svg>