<?xml version="1.0" encoding="UTF-8"?>
<svg id="Layer_1" data-name="Layer 1" xmlns="http://www.w3.org/2000/svg" viewBox="0 0 318.75 150.34">
  <defs>
    <style>
      .cls-1, .cls-2 {
        fill: #0e6e5b;
      }

      .cls-1, .cls-2, .cls-3, .cls-4, .cls-5 {
        stroke: #231f20;
        stroke-linecap: round;
      }

      .cls-1, .cls-3, .cls-4, .cls-5 {
        stroke-miterlimit: 10;
      }

      .cls-2 {
        stroke-linejoin: round;
      }

      .cls-3 {
        fill: #f2a93b;
        opacity: .85;
      }

      .cls-4, .cls-5 {
        fill: none;
      }

      .cls-5 {
        opacity: .5;
      }
    </style>
  </defs>
  <path class="cls-4" d="M261.34,134.85c2.55-1.34,4.99-2.87,7.32-4.58"/>
  <path class="cls-4" d="M247.61,140.83c3.4-1,6.68-2.35,9.82-3.99"/>
  <path class="cls-4" d="M232.89,144.11c2.87-.41,5.72-1.02,8.54-1.85"/>
  <path class="cls-1" d="M218.75,145.5c3.03,0,6.06-.2,9.06-.63"/>
  <path class="cls-1" d="M199.84,144.18c4.33.85,8.73,1.3,13.12,1.31"/>
  <path class="cls-1" d="M187.36,140.97c2.3.69,4.63,1.27,6.97,1.73"/>
  <path class="cls-1" d="M177.22,136.85c1.9.74,3.83,1.4,5.78,1.99"/>
  <path class="cls-4" d="M164.14,130.57c2.56,1.4,5.18,2.67,7.85,3.78"/>
  <circle class="cls-1" cx="72" cy="84.84" r="48.62"/>
  <ellipse class="cls-5" cx="72" cy="84.84" rx="71.5" ry="65"/>
  <path class="cls-4" d="M310.01,53.97c.06-4.08-.41-8.19-1.47-12.23"/>
  <path class="cls-4" d="M309.54,63.83c.27-1.99.43-3.99.46-5.99"/>
  <path class="cls-4" d="M307.71,74.96c.53-2.02.94-4.06,1.23-6.12"/>
  <path class="cls-4" d="M303.67,87.68c1.07-2.5,1.96-5.07,2.65-7.69"/>
  <path class="cls-4" d="M297,100.84c1.46-2.39,2.74-4.88,3.83-7.44"/>
  <path class="cls-4" d="M289.18,111.47c1.76-2.17,3.38-4.46,4.82-6.83"/>
  <path class="cls-4" d="M282.3,118.65c1.67-1.64,3.25-3.37,4.72-5.18"/>
  <path class="cls-4" d="M272.04,128.25c2.32-1.7,4.52-3.57,6.57-5.59"/>
  <path class="cls-1" d="M148.03,120.62c3.69,2.88,7.59,5.45,11.65,7.67"/>
  <path class="cls-2" d="M137.17,112.35c2.41,2.26,4.97,4.36,7.64,6.31"/>
  <path class="cls-1" d="M125,100.84c2.94,3.37,6.13,6.57,9.51,9.57"/>
  <circle class="cls-3" cx="298.92" cy="19.84" r="19.34"/>
</svg>